<svg xmlns="http://www.w3.org/2000/svg" width="231" height="163" viewBox="0 0 231 163" version="1.1"><path d="M 91.500 43.359 C 89.642 46.195, 90.294 48.357, 93.439 49.790 C 97.946 51.844, 102.292 45.692, 98.800 42.200 C 96.833 40.233, 93.167 40.816, 91.500 43.359 M 110.783 43.578 C 109.214 47.021, 110.768 49.407, 114.844 49.813 C 117.364 50.064, 118.205 49.644, 119.096 47.689 C 120.724 44.116, 118.789 41, 114.943 41 C 112.704 41, 111.663 41.645, 110.783 43.578 M 131.200 42.200 C 129.558 43.842, 129.690 47.498, 131.445 48.954 C 133.463 50.629, 137.015 49.887, 138.622 47.454 C 141.321 43.367, 134.711 38.689, 131.200 42.200 M 80.750 119.080 C 78.425 120.434, 78.538 122.879, 81.048 125.551 L 83.097 127.732 80.548 130.760 C 77.622 134.237, 77.425 135, 79.449 135 C 81.583 135, 86.011 128.708, 86.650 124.767 C 87.045 122.337, 86.721 120.864, 85.531 119.674 C 83.603 117.746, 83.139 117.689, 80.750 119.080 M 158.005 120.894 C 154.835 121.776, 153.988 125, 156.927 125 C 158.935 125, 159 125.485, 159 140.383 C 159 154.926, 158.891 155.795, 157 156.290 C 155.900 156.577, 155 157.305, 155 157.906 C 155 158.586, 157.462 159, 161.500 159 C 165.538 159, 168 158.586, 168 157.906 C 168 157.305, 167.100 156.577, 166 156.290 C 164.217 155.823, 164 154.926, 164 147.998 C 164 140.845, 164.195 140.102, 166.465 138.615 C 167.820 137.727, 170.082 137, 171.490 137 C 174.836 137, 176 140.085, 176 148.948 C 176 154.926, 175.753 155.831, 174 156.290 C 172.900 156.577, 172 157.305, 172 157.906 C 172 158.586, 174.462 159, 178.500 159 C 182.538 159, 185 158.586, 185 157.906 C 185 157.305, 184.100 156.577, 183 156.290 C 181.196 155.818, 180.999 154.919, 180.985 147.133 C 180.959 131.803, 177.363 129.288, 164.750 135.781 C 164.338 135.993, 164 132.529, 164 128.083 C 164 119.326, 163.932 119.244, 158.005 120.894 M 132.500 123.881 C 127.742 126.066, 125.610 128.296, 123.538 133.254 C 119.465 143.002, 124.219 155.487, 133.315 158.933 C 136.997 160.328, 143.302 160.289, 148.134 158.842 C 151.851 157.728, 152 157.516, 152 153.342 C 152 149.649, 151.697 149, 149.975 149 C 148.514 149, 147.779 149.857, 147.334 152.078 C 146.184 157.832, 137.743 158.473, 132.683 153.191 C 127.835 148.131, 127.336 136.065, 131.731 130.142 C 134.022 127.053, 139.424 124.976, 143.258 125.709 C 145.373 126.113, 146.088 126.951, 146.587 129.612 C 147.043 132.042, 147.756 133, 149.111 133 C 150.677 133, 151 132.247, 151 128.598 C 151 124.559, 150.740 124.105, 147.851 123.098 C 143.214 121.481, 137.039 121.796, 132.500 123.881 M 1 124.500 C 1 125.433, 1.944 126, 3.500 126 L 6 126 6 140.930 C 6 155.490, 5.946 155.869, 3.828 156.180 C 2.634 156.356, 1.471 157.063, 1.245 157.750 C 0.929 158.710, 4.097 159, 14.917 159 L 29 159 29 154 C 29 149.705, 28.724 149, 27.045 149 C 25.603 149, 24.918 149.918, 24.434 152.500 L 23.777 156 17.889 156 L 12 156 12 141 L 12 126 14.500 126 C 16.056 126, 17 125.433, 17 124.500 C 17 123.292, 15.444 123, 9 123 C 2.556 123, 1 123.292, 1 124.500 M 64.667 126.667 C 64.300 127.033, 64 128.560, 64 130.058 C 64 132.131, 63.402 132.933, 61.500 133.411 C 58.528 134.157, 58.132 137, 61 137 C 62.860 137, 63 137.667, 63 146.500 C 63 154.667, 63.281 156.281, 65 158 C 67.277 160.277, 69.765 160.520, 73.479 158.828 C 76.770 157.328, 76.141 155.405, 72.492 155.812 C 70.953 155.983, 69.320 155.533, 68.863 154.812 C 68.405 154.090, 68.024 149.787, 68.015 145.250 L 68 137 72 137 C 75.333 137, 76 136.667, 76 135 C 76 133.381, 75.333 133, 72.500 133 C 69.167 133, 69 132.833, 69 129.500 C 69 126.773, 68.595 126, 67.167 126 C 66.158 126, 65.033 126.300, 64.667 126.667 M 218.985 128.250 C 218.964 131.218, 217.983 132.580, 215.250 133.433 C 212.163 134.396, 212.346 137, 215.500 137 C 217.999 137, 218 137.004, 218 146.943 C 218 156.085, 218.179 157.012, 220.223 158.443 C 223.221 160.544, 226.296 160.402, 229.139 158.033 C 231.604 155.979, 231.413 155.804, 226.500 155.615 L 223.500 155.500 223.212 146.250 L 222.925 137 226.462 137 C 229.333 137, 230 136.623, 230 135 C 230 133.381, 229.333 133, 226.500 133 C 223.167 133, 223 132.833, 223 129.500 C 223 126.667, 222.619 126, 221 126 C 219.597 126, 218.995 126.672, 218.985 128.250 M 41.500 133.364 C 35.380 136.145, 32.314 143.136, 33.986 150.500 C 36.044 159.569, 46.414 163.176, 53.144 157.163 C 57.037 153.684, 56.281 150.847, 52.295 153.982 C 47.925 157.420, 42.817 156.297, 40.163 151.316 C 37.621 146.543, 38.360 146, 47.393 146 C 56.829 146, 57.522 145.475, 55.890 139.565 C 54.270 133.697, 47.340 130.710, 41.500 133.364 M 91.523 133.565 C 87.802 135.505, 87.035 136.702, 87.015 140.595 C 86.997 144.235, 88.922 146.204, 94.779 148.536 C 99.957 150.599, 101.689 153.168, 99.427 155.431 C 98.563 156.294, 96.551 157, 94.954 157 C 92.727 157, 91.683 156.287, 90.467 153.936 C 88.524 150.179, 86.606 150.578, 86.187 154.828 C 85.921 157.516, 86.303 158.168, 88.687 159.088 C 92.866 160.703, 100.769 159.675, 103.250 157.194 C 105.643 154.801, 105.998 149.907, 103.957 147.448 C 103.200 146.535, 100.167 144.722, 97.217 143.417 C 92.740 141.437, 91.908 140.671, 92.177 138.773 C 92.438 136.940, 93.225 136.440, 96.250 136.190 C 99.688 135.905, 100 136.092, 100 138.440 C 100 140.333, 100.521 141, 102 141 C 103.608 141, 104 140.333, 104 137.598 C 104 134.681, 103.551 134.039, 100.851 133.098 C 96.663 131.638, 95.065 131.718, 91.523 133.565 M 194.329 133.410 C 189.037 135.792, 187.260 142, 191.871 142 C 193.120 142, 194.174 140.938, 194.850 139 C 195.693 136.583, 196.468 136, 198.841 136 C 201.778 136, 203 137.425, 203 140.847 C 203 141.970, 201.289 143.138, 197.866 144.354 C 188.848 147.557, 185.451 153.451, 190 158 C 192.432 160.432, 197.662 160.625, 200.839 158.400 C 202.932 156.934, 203.270 156.934, 204.890 158.400 C 206.984 160.295, 210.123 160.477, 211.800 158.800 C 213.749 156.851, 213.200 155.002, 210.750 155.262 C 208.584 155.491, 208.481 155.135, 208 145.781 C 207.641 138.802, 207.058 135.621, 205.931 134.498 C 203.696 132.270, 198.041 131.739, 194.329 133.410 M 41.807 137.750 C 40.980 138.713, 40.025 140.287, 39.683 141.250 C 39.137 142.791, 39.777 143, 45.031 143 C 50.593 143, 51 142.843, 51 140.700 C 51 139.435, 50.460 137.860, 49.800 137.200 C 48.032 135.432, 43.532 135.741, 41.807 137.750 M 197.250 147.989 C 193.398 150.338, 192.739 154.465, 196.049 155.516 C 199.468 156.601, 203 153.532, 203 149.477 C 203 145.445, 201.893 145.158, 197.250 147.989" stroke="none" fill="#faf9fa" fill-rule="evenodd"/><path d="M 84.101 2.044 C 75.329 3.844, 67.857 11.737, 66.296 20.852 C 65.858 23.408, 65.503 34.500, 65.506 45.500 C 65.512 65.318, 65.538 65.552, 68.281 71.150 C 72.913 80.604, 78.814 84.074, 91.966 85.078 C 102.406 85.874, 102.577 85.982, 109.240 95.915 C 113.087 101.648, 116.913 101.648, 120.760 95.915 C 127.423 85.982, 127.594 85.874, 138.034 85.078 C 151.171 84.075, 157.092 80.600, 161.695 71.191 L 164.439 65.582 164.318 43.844 C 164.179 19.143, 163.303 14.678, 157.396 8.596 C 150.792 1.796, 149.834 1.623, 117.500 1.369 C 101.550 1.243, 86.520 1.547, 84.101 2.044 M 91.500 43.359 C 89.642 46.195, 90.294 48.357, 93.439 49.790 C 97.946 51.844, 102.292 45.692, 98.800 42.200 C 96.833 40.233, 93.167 40.816, 91.500 43.359 M 110.783 43.578 C 109.214 47.021, 110.768 49.407, 114.844 49.813 C 117.364 50.064, 118.205 49.644, 119.096 47.689 C 120.724 44.116, 118.789 41, 114.943 41 C 112.704 41, 111.663 41.645, 110.783 43.578 M 131.200 42.200 C 129.558 43.842, 129.690 47.498, 131.445 48.954 C 133.463 50.629, 137.015 49.887, 138.622 47.454 C 141.321 43.367, 134.711 38.689, 131.200 42.200" stroke="none" fill="#936dfa" fill-rule="evenodd"/></svg>